0
SECTION
2
HEADER
9
$INSUNITS
70
4
0
ENDSEC
0
SECTION
2
TABLES
0
TABLE
2
LTYPE
0
LTYPE
72
65
70
64
2
CONTINUOUS
3
______
73
0
40
0
0
ENDTAB
0
TABLE
2
LAYER
0
ENDTAB
0
ENDSEC
0
SECTION
2
ENTITIES
0
LINE
8
0
10
408.5
20
-158.5
11
408.5
21
-88.25
0
LINE
8
0
10
406.5
20
-86.25
11
373.5471611
21
-86.25
0
LINE
8
0
10
371.5585428
20
-84.4630662
11
371.1914572
21
-81.0369338
0
LINE
8
0
10
369.2028389
20
-79.25
11
354.7223748
21
-79.25
0
LINE
8
0
10
352.7445021
20
-77.546681
11
352.5054979
21
-75.953319
0
LINE
8
0
10
350.5276252
20
-74.25
11
332.0155645
21
-74.25
0
LINE
8
0
10
330.0310087
20
-76.0019306
11
329.7189913
21
-78.4980694
0
LINE
8
0
10
327.7344355
20
-80.25
11
313.0615023
21
-80.25
0
LINE
8
0
10
311.1212326
20
-81.7648678
11
310.7499
21
-83.25
0
LINE
8
0
10
310.7499
20
-83.25
11
294.75
21
-83.25
0
LINE
8
0
10
292.75
20
-85.25
11
292.75
21
-153.5
0
LINE
8
0
10
290.75
20
-155.5
11
267.25
21
-155.5
0
LINE
8
0
10
265.25
20
-157.5
11
265.25
21
-174.5
0
LINE
8
0
10
267.25
20
-176.5
11
282
21
-176.5
0
LINE
8
0
10
284
20
-178.5
11
284
21
-193.5
0
LINE
8
0
10
286
20
-195.5
11
304
21
-195.5
0
LINE
8
0
10
306
20
-193.5
11
306
21
-178.5
0
LINE
8
0
10
308
20
-176.5
11
322.7725981
21
-176.5
0
LINE
8
0
10
324.772469
20
-174.5227258
11
324.977531
21
-156.4772742
0
LINE
8
0
10
326.9774019
20
-154.5
11
331.7344355
21
-154.5
0
LINE
8
0
10
333.7189913
20
-152.7480694
11
334.0310087
21
-150.2519306
0
LINE
8
0
10
336.0155645
20
-148.5
11
346.5276252
21
-148.5
0
LINE
8
0
10
348.5054979
20
-150.203319
11
348.7445021
21
-151.796681
0
LINE
8
0
10
350.7223748
20
-153.5
11
365.2028389
21
-153.5
0
LINE
8
0
10
367.1914572
20
-155.2869338
11
367.5585428
21
-158.7130662
0
LINE
8
0
10
369.5471611
20
-160.5
11
406.5
21
-160.5
0
ARC
8
0
10
406.5
20
-88.25
40
2
50
0
51
90
0
ARC
8
0
10
373.5471611
20
-84.25
40
2
50
186.1155019
51
270
0
ARC
8
0
10
369.2028389
20
-81.25
40
2
50
6.1155019
51
90
0
ARC
8
0
10
354.7223748
20
-77.25
40
2
50
188.5307679
51
270
0
ARC
8
0
10
350.5276252
20
-76.25
40
2
50
8.5307679
51
90
0
ARC
8
0
10
332.0155645
20
-76.25
40
2
50
90
51
172.8749858
0
ARC
8
0
10
327.7344355
20
-78.25
40
2
50
270
51
352.8749858
0
ARC
8
0
10
313.0615023
20
-82.25
40
2
50
90
51
165.961957
0
ARC
8
0
10
294.75
20
-85.25
40
2
50
90
51
180
0
ARC
8
0
10
290.75
20
-153.5
40
2
50
270
51
0
0
ARC
8
0
10
267.25
20
-157.5
40
2
50
90
51
180
0
ARC
8
0
10
267.25
20
-174.5
40
2
50
180
51
270
0
ARC
8
0
10
282
20
-178.5
40
2
50
0
51
90
0
ARC
8
0
10
286
20
-193.5
40
2
50
180
51
270
0
ARC
8
0
10
304
20
-193.5
40
2
50
270
51
0
0
ARC
8
0
10
308
20
-178.5
40
2
50
90
51
180
0
ARC
8
0
10
322.7725981
20
-174.5
40
2
50
270
51
359.3489398
0
ARC
8
0
10
326.9774019
20
-156.5
40
2
50
90
51
179.3489397
0
ARC
8
0
10
331.7344355
20
-152.5
40
2
50
270
51
352.8749858
0
ARC
8
0
10
336.0155645
20
-150.5
40
2
50
90
51
172.8749858
0
ARC
8
0
10
346.5276252
20
-150.5
40
2
50
8.5307679
51
90
0
ARC
8
0
10
350.7223748
20
-151.5
40
2
50
188.5307679
51
270
0
ARC
8
0
10
365.2028389
20
-155.5
40
2
50
6.1155019
51
90
0
ARC
8
0
10
369.5471611
20
-158.5
40
2
50
186.1155019
51
270
0
ARC
8
0
10
406.5
20
-158.5
40
2
50
270
51
0
0
ENDSEC
0
EOF