0
SECTION
2
HEADER
9
$INSUNITS
70
4
0
ENDSEC
0
SECTION
2
TABLES
0
TABLE
2
LTYPE
0
LTYPE
72
65
70
64
2
CONTINUOUS
3
______
73
0
40
0
0
ENDTAB
0
TABLE
2
LAYER
0
ENDTAB
0
ENDSEC
0
SECTION
2
ENTITIES
0
LINE
8
0
10
-8
20
-9.5
11
27
21
-9.5
0
LINE
8
0
10
-10
20
-7.5
11
-10
21
64.5
0
LINE
8
0
10
-8
20
66.5
11
26
21
66.5
0
LINE
8
0
10
29
20
-7.5
11
29
21
0.5
0
LINE
8
0
10
31
20
2.5
11
46
21
2.5
0
LINE
8
0
10
48
20
4.5
11
48
21
5.5
0
LINE
8
0
10
45
20
78.5
11
30
21
78.5
0
LINE
8
0
10
28
20
76.5
11
28
21
68.5
0
LINE
8
0
10
50
20
7.5
11
64
21
7.5
0
LINE
8
0
10
67
20
79.5
11
67
21
81.5
0
LINE
8
0
10
65
20
83.5
11
49
21
83.5
0
LINE
8
0
10
47
20
81.5
11
47
21
80.5
0
LINE
8
0
10
68
20
1.5
11
103
21
1.5
0
LINE
8
0
10
66
20
5.5
11
66
21
3.5
0
LINE
8
0
10
69
20
77.5
11
103
21
77.5
0
LINE
8
0
10
105
20
3.5
11
105
21
75.5
0
LINE
8
0
10
97.1351213
20
-1.7651622
11
131.8456523
21
-43.131562
0
LINE
8
0
10
68.2719462
20
-23.3734273
11
94.3174572
21
-1.5186485
0
LINE
8
0
10
107.6489937
20
-43.85386
11
117.2908079
21
-55.3445266
0
LINE
8
0
10
120.108472
20
-55.5910403
11
131.5991386
21
-45.9492261
0
LINE
8
0
10
68.0254325
20
-26.1910914
11
90.5229989
21
-53.0026468
0
LINE
8
0
10
93.340663
20
-53.2491605
11
104.8313296
21
-43.6073463
0
ARC
8
0
10
27
20
-7.5
40
2
50
270
51
0
0
ARC
8
0
10
31
20
0.5
40
2
50
90
51
180
0
ARC
8
0
10
46
20
4.5
40
2
50
270
51
0
0
ARC
8
0
10
50
20
5.5
40
2
50
90
51
180
0
ARC
8
0
10
64
20
5.5
40
2
50
0
51
90
0
ARC
8
0
10
68
20
3.5
40
2
50
180
51
270
0
ARC
8
0
10
103
20
3.5
40
2
50
270
51
0
0
ARC
8
0
10
103
20
75.5
40
2
50
0
51
90
0
ARC
8
0
10
69
20
79.5
40
2
50
180
51
270
0
ARC
8
0
10
65
20
81.5
40
2
50
0
51
90
0
ARC
8
0
10
49
20
81.5
40
2
50
90
51
180
0
ARC
8
0
10
45
20
80.5
40
2
50
270
51
0
0
ARC
8
0
10
30
20
76.5
40
2
50
90
51
180
0
ARC
8
0
10
26
20
68.5
40
2
50
270
51
0
0
ARC
8
0
10
-8
20
64.5
40
2
50
90
51
180
0
ARC
8
0
10
-8
20
-7.5
40
2
50
180
51
270
0
ARC
8
0
10
95.6030324
20
-3.0507374
40
2
50
40.0000012
51
130.0000012
0
ARC
8
0
10
69.5575214
20
-24.9055162
40
2
50
130.0000012
51
220.0000012
0
ARC
8
0
10
92.0550878
20
-51.7170716
40
2
50
220.0000012
51
310.0000012
0
ARC
8
0
10
106.1169048
20
-45.1394352
40
2
50
40.0000012
51
130.0000012
0
ARC
8
0
10
118.8228968
20
-54.0589514
40
2
50
220.0000012
51
310.0000012
0
ARC
8
0
10
130.3135634
20
-44.4171372
40
2
50
310.0000012
51
40.0000012
0
ENDSEC
0
EOF