0
SECTION
2
HEADER
9
$INSUNITS
70
4
0
ENDSEC
0
SECTION
2
TABLES
0
TABLE
2
LTYPE
0
LTYPE
72
65
70
64
2
CONTINUOUS
3
______
73
0
40
0
0
ENDTAB
0
TABLE
2
LAYER
0
ENDTAB
0
ENDSEC
0
SECTION
2
ENTITIES
0
LINE
8
0
10
87.5
20
-162
11
87.5
21
-84.75
0
LINE
8
0
10
87.5
20
-84.75
11
124.25
21
-84.75
0
LINE
8
0
10
124.25
20
-84.75
11
125
21
-77.75
0
LINE
8
0
10
125
20
-77.75
11
143
21
-77.75
0
LINE
8
0
10
143
20
-77.75
11
143.75
21
-72.75
0
LINE
8
0
10
143.75
20
-72.75
11
168.75
21
-72.75
0
LINE
8
0
10
168.75
20
-72.75
11
169.5
21
-78.75
0
LINE
8
0
10
169.5
20
-78.75
11
187.5
21
-78.75
0
LINE
8
0
10
187.5
20
-78.75
11
188.2501
21
-81.75
0
LINE
8
0
10
188.2501
20
-81.75
11
206.25
21
-81.75
0
LINE
8
0
10
206.25
20
-81.75
11
206.25
21
-155.5
0
LINE
8
0
10
206.25
20
-155.5
11
232.25
21
-155.5
0
LINE
8
0
10
232.25
20
-155.5
11
232.25
21
-176.5
0
LINE
8
0
10
232.25
20
-176.5
11
213.5
21
-176.5
0
LINE
8
0
10
213.5
20
-176.5
11
213.5
21
-195.5
0
LINE
8
0
10
213.5
20
-195.5
11
191.5
21
-195.5
0
LINE
8
0
10
191.5
20
-195.5
11
191.5
21
-176.5
0
LINE
8
0
10
191.5
20
-176.5
11
172.75
21
-176.5
0
LINE
8
0
10
172.75
20
-176.5
11
172.75
21
-156
0
LINE
8
0
10
172.75
20
-156
11
162.5
21
-156
0
LINE
8
0
10
162.5
20
-156
11
161.75
21
-150
0
LINE
8
0
10
161.75
20
-150
11
150.75
21
-150
0
LINE
8
0
10
150.75
20
-150
11
150
21
-155
0
LINE
8
0
10
150
20
-155
11
132
21
-155
0
LINE
8
0
10
132
20
-155
11
131.25
21
-162
0
LINE
8
0
10
87.5
20
-162
11
131.25
21
-162
0
LINE
8
0
10
93
20
-157
11
107
21
-157
0
LINE
8
0
10
107
20
-157
11
107
21
-143
0
LINE
8
0
10
107
20
-143
11
93
21
-143
0
LINE
8
0
10
93
20
-143
11
93
21
-157
0
LINE
8
0
10
93
20
-139.25
11
107
21
-139.25
0
LINE
8
0
10
107
20
-139.25
11
107
21
-125.25
0
LINE
8
0
10
107
20
-125.25
11
93
21
-125.25
0
LINE
8
0
10
93
20
-125.25
11
93
21
-139.25
0
LINE
8
0
10
93
20
-121.5
11
107
21
-121.5
0
LINE
8
0
10
107
20
-121.5
11
107
21
-107.5
0
LINE
8
0
10
107
20
-107.5
11
93
21
-107.5
0
LINE
8
0
10
93
20
-107.5
11
93
21
-121.5
0
LINE
8
0
10
93
20
-103.75
11
107
21
-103.75
0
LINE
8
0
10
107
20
-103.75
11
107
21
-89.75
0
LINE
8
0
10
107
20
-89.75
11
93
21
-89.75
0
LINE
8
0
10
93
20
-89.75
11
93
21
-103.75
0
LINE
8
0
10
111.75
20
-157
11
125.75
21
-157
0
LINE
8
0
10
125.75
20
-157
11
125.75
21
-143
0
LINE
8
0
10
125.75
20
-143
11
111.75
21
-143
0
LINE
8
0
10
111.75
20
-143
11
111.75
21
-157
0
LINE
8
0
10
111.75
20
-139.25
11
125.75
21
-139.25
0
LINE
8
0
10
125.75
20
-139.25
11
125.75
21
-125.25
0
LINE
8
0
10
125.75
20
-125.25
11
111.75
21
-125.25
0
LINE
8
0
10
111.75
20
-125.25
11
111.75
21
-139.25
0
LINE
8
0
10
111.75
20
-121.5
11
125.75
21
-121.5
0
LINE
8
0
10
125.75
20
-121.5
11
125.75
21
-107.5
0
LINE
8
0
10
125.75
20
-107.5
11
111.75
21
-107.5
0
LINE
8
0
10
111.75
20
-107.5
11
111.75
21
-121.5
0
LINE
8
0
10
111.75
20
-103.75
11
125.75
21
-103.75
0
LINE
8
0
10
125.75
20
-103.75
11
125.75
21
-89.75
0
LINE
8
0
10
125.75
20
-89.75
11
111.75
21
-89.75
0
LINE
8
0
10
111.75
20
-89.75
11
111.75
21
-103.75
0
LINE
8
0
10
130.5
20
-150
11
144.5
21
-150
0
LINE
8
0
10
144.5
20
-150
11
144.5
21
-136
0
LINE
8
0
10
144.5
20
-136
11
130.5
21
-136
0
LINE
8
0
10
130.5
20
-136
11
130.5
21
-150
0
LINE
8
0
10
130.5
20
-132.25
11
144.5
21
-132.25
0
LINE
8
0
10
144.5
20
-132.25
11
144.5
21
-118.25
0
LINE
8
0
10
144.5
20
-118.25
11
130.5
21
-118.25
0
LINE
8
0
10
130.5
20
-118.25
11
130.5
21
-132.25
0
LINE
8
0
10
130.5
20
-114.5
11
144.5
21
-114.5
0
LINE
8
0
10
144.5
20
-114.5
11
144.5
21
-100.5
0
LINE
8
0
10
144.5
20
-100.5
11
130.5
21
-100.5
0
LINE
8
0
10
130.5
20
-100.5
11
130.5
21
-114.5
0
LINE
8
0
10
130.5
20
-96.75
11
144.5
21
-96.75
0
LINE
8
0
10
144.5
20
-96.75
11
144.5
21
-82.75
0
LINE
8
0
10
144.5
20
-82.75
11
130.5
21
-82.75
0
LINE
8
0
10
130.5
20
-82.75
11
130.5
21
-96.75
0
LINE
8
0
10
149.25
20
-145
11
163.25
21
-145
0
LINE
8
0
10
163.25
20
-145
11
163.25
21
-131
0
LINE
8
0
10
163.25
20
-131
11
149.25
21
-131
0
LINE
8
0
10
149.25
20
-131
11
149.25
21
-145
0
LINE
8
0
10
149.25
20
-127.25
11
163.25
21
-127.25
0
LINE
8
0
10
163.25
20
-127.25
11
163.25
21
-113.25
0
LINE
8
0
10
163.25
20
-113.25
11
149.25
21
-113.25
0
LINE
8
0
10
149.25
20
-113.25
11
149.25
21
-127.25
0
LINE
8
0
10
149.25
20
-109.5
11
163.25
21
-109.5
0
LINE
8
0
10
163.25
20
-109.5
11
163.25
21
-95.5
0
LINE
8
0
10
163.25
20
-95.5
11
149.25
21
-95.5
0
LINE
8
0
10
149.25
20
-95.5
11
149.25
21
-109.5
0
LINE
8
0
10
149.25
20
-91.75
11
163.25
21
-91.75
0
LINE
8
0
10
163.25
20
-91.75
11
163.25
21
-77.75
0
LINE
8
0
10
163.25
20
-77.75
11
149.25
21
-77.75
0
LINE
8
0
10
149.25
20
-77.75
11
149.25
21
-91.75
0
LINE
8
0
10
168
20
-151
11
182
21
-151
0
LINE
8
0
10
182
20
-151
11
182
21
-137
0
LINE
8
0
10
182
20
-137
11
168
21
-137
0
LINE
8
0
10
168
20
-137
11
168
21
-151
0
LINE
8
0
10
168
20
-133.25
11
182
21
-133.25
0
LINE
8
0
10
182
20
-133.25
11
182
21
-119.25
0
LINE
8
0
10
182
20
-119.25
11
168
21
-119.25
0
LINE
8
0
10
168
20
-119.25
11
168
21
-133.25
0
LINE
8
0
10
168
20
-115.5
11
182
21
-115.5
0
LINE
8
0
10
182
20
-115.5
11
182
21
-101.5
0
LINE
8
0
10
182
20
-101.5
11
168
21
-101.5
0
LINE
8
0
10
168
20
-101.5
11
168
21
-115.5
0
LINE
8
0
10
168
20
-97.75
11
182
21
-97.75
0
LINE
8
0
10
182
20
-97.75
11
182
21
-83.75
0
LINE
8
0
10
182
20
-83.75
11
168
21
-83.75
0
LINE
8
0
10
168
20
-83.75
11
168
21
-97.75
0
LINE
8
0
10
186.75
20
-154
11
200.75
21
-154
0
LINE
8
0
10
200.75
20
-154
11
200.75
21
-140
0
LINE
8
0
10
200.75
20
-140
11
186.75
21
-140
0
LINE
8
0
10
186.75
20
-140
11
186.75
21
-154
0
LINE
8
0
10
186.75
20
-136.25
11
200.75
21
-136.25
0
LINE
8
0
10
200.75
20
-136.25
11
200.75
21
-122.25
0
LINE
8
0
10
200.75
20
-122.25
11
186.75
21
-122.25
0
LINE
8
0
10
186.75
20
-122.25
11
186.75
21
-136.25
0
LINE
8
0
10
186.75
20
-118.5
11
200.75
21
-118.5
0
LINE
8
0
10
200.75
20
-118.5
11
200.75
21
-104.5
0
LINE
8
0
10
200.75
20
-104.5
11
186.75
21
-104.5
0
LINE
8
0
10
186.75
20
-104.5
11
186.75
21
-118.5
0
LINE
8
0
10
186.75
20
-100.75
11
200.75
21
-100.75
0
LINE
8
0
10
200.75
20
-100.75
11
200.75
21
-86.75
0
LINE
8
0
10
200.75
20
-86.75
11
186.75
21
-86.75
0
LINE
8
0
10
186.75
20
-86.75
11
186.75
21
-100.75
0
LINE
8
0
10
176.75
20
-173
11
190.75
21
-173
0
LINE
8
0
10
190.75
20
-173
11
190.75
21
-159
0
LINE
8
0
10
190.75
20
-159
11
176.75
21
-159
0
LINE
8
0
10
176.75
20
-159
11
176.75
21
-173
0
LINE
8
0
10
195.5
20
-173
11
209.5
21
-173
0
LINE
8
0
10
209.5
20
-173
11
209.5
21
-159
0
LINE
8
0
10
209.5
20
-159
11
195.5
21
-159
0
LINE
8
0
10
195.5
20
-159
11
195.5
21
-173
0
LINE
8
0
10
214.25
20
-173
11
228.25
21
-173
0
LINE
8
0
10
228.25
20
-173
11
228.25
21
-159
0
LINE
8
0
10
228.25
20
-159
11
214.25
21
-159
0
LINE
8
0
10
214.25
20
-159
11
214.25
21
-173
0
LINE
8
0
10
195.5
20
-192
11
209.5
21
-192
0
LINE
8
0
10
209.5
20
-192
11
209.5
21
-178
0
LINE
8
0
10
209.5
20
-178
11
195.5
21
-178
0
LINE
8
0
10
195.5
20
-178
11
195.5
21
-192
0
ENDSEC
0
EOF